<?xml version="1.0" encoding="UTF-8"?>
<svg id="Layer_1" data-name="Layer 1" xmlns="http://www.w3.org/2000/svg" viewBox="0 0 86.61 64.89">
  <defs>
    <style>
      .cls-1 {
        fill: none;
        stroke: #eb5699;
        stroke-linecap: round;
        stroke-miterlimit: 10;
        stroke-width: 3px;
      }

      .cls-2 {
        fill: #e94190;
      }
    </style>
  </defs>
  <path class="cls-1" d="m22.89,48.94h7s3.67.8,4.13-4.02,1.09-7.98,2.18-8.03c.8-.04,1.2,1.2,1.66,10.96.46,9.75,1.2,12.11,1.89,11.99s1.72-5.62,1.95-16.52,1.03-15.95,1.95-15.95c.98,0,1.72,2.37,2.41,21.57.52,14.29,1.15,14.46,1.84,14.46s1.61-10.44,1.84-16.06.91-11.7,1.61-11.7c2.47,0-.23,13.31,5.85,13.31h7.34"/>
  <path class="cls-2" d="m78.94,34.45c-.36-2.54-2.44-2.46-2.44-2.46,0-11.85-4.08-20.55-11.75-26.15C57.08.25,44.15,0,44.15,0,44.15,0,29.87-.18,22.2,5.41c-7.67,5.59-12.09,14.72-12.09,26.57,0,0-2.07-.08-2.44,2.46,0,0-7.94,1.73-7.67,10.66.27,8.93,3.34,11.73,7.04,12.18,0,0,.9,3.25,4.24,3.16,3.34-.09,4.78-1.8,4.87-2.98s.09-23.02.09-23.02c0,0-.09-1.77-2.16-2.46,0,0,0-2.94.54-4.02s5.83-16.6,29.53-17.05c0,0,8.78-.25,16.07,4.4,10.28,6.56,11.49,12.08,11.77,12.65.54,1.08.54,4.02.54,4.02-2.07.69-2.16,2.46-2.16,2.46,0,0,0,21.84.09,23.02s1.53,2.89,4.87,2.98c3.34.09,4.24-3.16,4.24-3.16,3.7-.45,6.77-3.25,7.04-12.18.27-8.93-7.67-10.66-7.67-10.66ZM44.15,8.48c-17.42.08-26.08,9.88-26.08,9.88,0,0,4.52-13.22,26.08-12.94,20.61.26,24.26,12.94,24.26,12.94,0,0-9-9.95-24.26-9.88Z"/>
</svg>