<?xml version="1.0" encoding="UTF-8"?>
<svg id="Layer_1" data-name="Layer 1" xmlns="http://www.w3.org/2000/svg" viewBox="0 0 1121.72 206.66">
  <defs>
    <style>
      .cls-1 {
        fill: #e94190;
      }

      .cls-2 {
        fill: none;
        stroke: #eb5699;
        stroke-linecap: round;
        stroke-miterlimit: 10;
        stroke-width: 10px;
      }
    </style>
  </defs>
  <g>
    <path class="cls-2" d="m72.8,155.67h22.27s11.68,2.56,13.14-12.78,3.47-25.37,6.94-25.55c2.55-.13,3.83,3.83,5.29,34.86,1.46,31.03,3.83,38.51,6.02,38.14,2.19-.37,5.48-17.89,6.21-52.56.73-34.68,3.29-50.74,6.21-50.74,3.1,0,5.46,7.55,7.67,68.62,1.64,45.45,3.65,45.99,5.84,45.99s5.11-33.22,5.84-51.1c.73-17.89,2.89-37.23,5.11-37.23,7.85,0-.73,42.34,18.62,42.34h23.36"/>
    <path class="cls-1" d="m251.1,109.58c-1.15-8.08-7.75-7.82-7.75-7.82,0-37.71-12.98-65.38-37.38-83.17C181.59.79,140.44,0,140.44,0c0,0-45.43-.57-69.82,17.22-24.39,17.79-38.45,46.83-38.45,84.53,0,0-6.6-.25-7.75,7.82,0,0-25.25,5.49-24.39,33.9.86,28.41,10.62,37.3,22.38,38.74,0,0,2.87,10.33,13.49,10.04,10.62-.29,15.21-5.74,15.5-9.47s.29-73.21.29-73.21c0,0-.29-5.64-6.89-7.82,0,0,0-9.35,1.72-12.8s18.56-52.8,93.93-54.23c0,0,27.95-.8,51.13,13.99,32.71,20.88,36.54,38.42,37.45,40.24,1.72,3.44,1.72,12.8,1.72,12.8-6.6,2.18-6.89,7.82-6.89,7.82,0,0,0,69.48.29,73.21.29,3.73,4.88,9.18,15.5,9.47,10.62.29,13.49-10.04,13.49-10.04,11.76-1.43,21.52-10.33,22.38-38.74.86-28.41-24.39-33.9-24.39-33.9ZM140.44,26.98c-55.41.25-82.95,31.42-82.95,31.42,0,0,14.37-42.05,82.95-41.18,65.55.84,77.17,41.18,77.17,41.18,0,0-28.62-31.64-77.17-31.42Z"/>
  </g>
  <g>
    <path class="cls-1" d="m328.99,38.94h31.43c22.8,0,32.46,10.27,32.46,32.66v8.83c0,15.82-5.14,25.27-16.64,28.97v.21c12.12,3.08,16.85,13.15,16.85,29.99v25.68c0,6.57.21,12.33,2.05,17.46h-16.23c-1.23-4.11-1.85-7.81-1.85-17.46v-26.5c0-15.61-5.55-20.95-19.1-20.95h-12.94v64.92h-16.02V38.94Zm28.97,64.3c12.53,0,18.9-5.34,18.9-19.72v-10.27c0-13.97-4.93-19.72-16.85-19.72h-15v49.71h12.94Z"/>
    <path class="cls-1" d="m459.23,152.13h-33.28l-5.34,30.61h-15l26.71-143.8h21.57l26.91,143.8h-16.23l-5.34-30.61Zm-2.47-13.97l-14.38-80.94-13.97,80.94h28.35Z"/>
    <path class="cls-1" d="m481,38.94h16.23l20.75,122.03,20.75-122.03h14.79l-25.47,143.8h-21.36l-25.68-143.8Z"/>
    <path class="cls-1" d="m566.87,38.94h58.96v14.59h-42.93v46.84h34.92v14.58h-34.92v53.21h42.93v14.59h-58.96V38.94Z"/>
    <path class="cls-1" d="m673.48,38.94h23.21l21.16,114.83,20.95-114.83h23.42v143.8h-15.41V62.77l-22.8,119.97h-13.56l-22.8-119.97v119.97h-14.17V38.94Z"/>
    <path class="cls-1" d="m780.1,149.26v-77.04c0-22.8,11.71-35.33,32.87-35.33s33.07,12.53,33.07,35.33v77.04c0,22.8-11.71,35.54-33.07,35.54s-32.87-12.74-32.87-35.54Zm49.92,1.03v-79.09c0-13.56-6.16-19.72-17.05-19.72s-16.85,6.16-16.85,19.72v79.09c0,13.76,6.16,19.93,16.85,19.93s17.05-6.16,17.05-19.93Z"/>
    <path class="cls-1" d="m881.79,53.53h-25.47v-14.59h66.97v14.59h-25.47v129.21h-16.02V53.53Z"/>
    <path class="cls-1" d="m936.43,38.94h16.02v143.8h-16.02V38.94Z"/>
    <path class="cls-1" d="m970.32,149.26v-77.04c0-22.8,11.71-35.33,32.87-35.33s33.07,12.53,33.07,35.33v77.04c0,22.8-11.71,35.54-33.07,35.54s-32.87-12.74-32.87-35.54Zm49.92,1.03v-79.09c0-13.56-6.16-19.72-17.05-19.72s-16.85,6.16-16.85,19.72v79.09c0,13.76,6.16,19.93,16.85,19.93s17.05-6.16,17.05-19.93Z"/>
    <path class="cls-1" d="m1054.14,38.94h20.54l32.46,102.71V38.94h14.58v143.8h-16.64l-36.36-116.89v116.89h-14.59V38.94Z"/>
  </g>
</svg>